<svg xmlns="http://www.w3.org/2000/svg" viewBox="0 0 100 100">
  <defs>
    <linearGradient id="grad" x1="0%" y1="0%" x2="100%" y2="100%">
      <stop offset="0%" style="stop-color:#4ade80;stop-opacity:1" />
      <stop offset="100%" style="stop-color:#22c55e;stop-opacity:1" />
    </linearGradient>
  </defs>
  
  <!-- Brain Shape Background -->
  <path d="M50 15 C30 15 15 30 15 50 C15 70 30 85 50 85 C70 85 85 70 85 50 C85 30 70 15 50 15 Z" fill="none" stroke="url(#grad)" stroke-width="4" />
  
  <!-- Brain Convolutions (Simplified) -->
  <path d="M30 50 Q30 35 50 35 Q70 35 70 50" fill="none" stroke="url(#grad)" stroke-width="3" stroke-linecap="round" />
  <path d="M30 50 Q30 65 50 65 Q70 65 70 50" fill="none" stroke="url(#grad)" stroke-width="3" stroke-linecap="round" />
  <path d="M50 35 L50 65" fill="none" stroke="url(#grad)" stroke-width="3" stroke-linecap="round" />
  
  <!-- Play Button Overlay -->
  <path d="M45 40 L65 50 L45 60 Z" fill="#22c55e" />
</svg>
